General
Complete name                            : Shoot 'Em Up 2007 BRRiP x246 MP4 280MB - cRcWoRLd [crcworldmovies].mp4
Format                                   : MPEG-4
Format profile                           : Base Media / Version 2
Codec ID                                 : mp42
File size                                : 281 MiB
Duration                                 : 1h 26mn
Overall bit rate mode                    : Variable
Overall bit rate                         : 454 Kbps

Video
ID                                       : 1
Format                                   : AVC
Format/Info                              : Advanced Video Codec
Format profile                           : High@L2.1
Format settings, CABAC                   : No
Format settings, ReFrames                : 4 frames
Codec ID                                 : avc1
Codec ID/Info                            : Advanced Video Coding
Duration                                 : 1h 26mn
Bit rate mode                            : Variable
Bit rate                                 : 390 Kbps
Width                                    : 640 pixels
Height                                   : 272 pixels
Display aspect ratio                     : 2.40:1
Original display aspect ratio            : 2.40:1
Frame rate mode                          : Variable
Frame rate                               : 23.976 fps
Minimum frame rate                       : 23.974 fps
Maximum frame rate                       : 23.981 fps
Color space                              : YUV
Chroma subsampling                       : 4:2:0
Bit depth                                : 8 bits
Scan type                                : Progressive
Bits/(Pixel*Frame)                       : 0.093
Stream size                              : 239 MiB (85%)
Writing library                          : x264 core 120

Audio
ID                                       : 2
Format                                   : AAC
Format/Info                              : Advanced Audio Codec
Format profile                           : LC
Codec ID                                 : 40
Duration                                 : 1h 26mn
Bit rate mode                            : Variable
Bit rate                                 : 64.0 Kbps
Maximum bit rate                         : 80.4 Kbps
Channel(s)                               : 2 channels
Channel positions                        : Front: L R
Sampling rate                            : 44.1 KHz
Compression mode                         : Lossy
Stream size                              : 39.6 MiB (14%)

 
http://img685.imageshack.us/img685/827/vlcsnap2012121600h31m39.png 
http://img826.imageshack.us/img826/411/vlcsnap2012121600h42m14.png 
http://img811.imageshack.us/img811/254/emup.jpg

Sample: datafilehost . com/download-573daf5a.html
Subtitles: subscene . com/subtitles/shoot-em-up/english/621082